<svg xmlns="http://www.w3.org/2000/svg" viewBox="0 0 320 320" width="100%" height="100%">
  <!-- Triple-Striped Green L with Dollar Sign Motif (LoanSure Brand Mark) -->
  <g fill="#0f8a28">
    <!-- Outer Stripe of L -->
    <path d="M 50 115 L 68 90 L 68 248 L 220 248 L 195 266 L 50 266 Z" />
    
    <!-- Middle Stripe of L -->
    <path d="M 78 145 L 96 120 L 96 220 L 190 220 L 165 238 L 78 238 Z" />
    
    <!-- Inner Stripe of L -->
    <path d="M 106 175 L 124 150 L 124 192 L 160 192 L 135 210 L 106 210 Z" />
    
    <!-- Green Dollar Sign $ Motif in the quadrant of L -->
    <!-- S Curve Body -->
    <path d="M 180 148 C 172 148 164 144 164 136 C 164 128 172 125 182 123 C 196 120 206 116 206 104 C 206 92 194 86 180 86 C 168 86 156 90 152 98 L 164 104 C 166 99 172 96 180 96 C 187 96 193 99 193 104 C 193 110 186 112 176 115 C 163 118 152 123 152 136 C 152 149 164 157 180 157 C 194 157 206 151 210 142 L 197 136 C 194 143 187 148 180 148 Z" />
    <!-- Vertical Dollar Line -->
    <rect x="177" y="76" width="7" height="90" rx="2" />
    <!-- Center Horizontal Cross Slash -->
    <rect x="142" y="117" width="76" height="6.5" rx="2" />
  </g>
</svg>
